<svg id="Logo" xmlns="http://www.w3.org/2000/svg" viewBox="0 0 1026.17 1026.17"><defs><style>.cls-1{fill:#fff;}</style></defs><title>s-logo-cs5-white</title><path id="softer" class="cls-1" d="M854.63,12.22H197.22C95.55,12.22,12.84,94.93,12.84,196.6V854c0,101.67,82.71,184.38,184.38,184.38H854.63C956.29,1038.39,1039,955.68,1039,854V196.6C1039,94.93,956.29,12.22,854.63,12.22Zm0,946.17H197.22c-57.41,0-104.38-47-104.38-104.38V709.81H456.65a80,80,0,1,0,0-80H92.84V196.6c0-57.41,47-104.38,104.38-104.38H854.63C912,92.22,959,139.19,959,196.6V341.85H595.19a80,80,0,1,0,0,80H959V854C959,911.42,912,958.39,854.63,958.39Z" transform="translate(-12.84 -12.22)"/></svg>